<?xml version="1.0" encoding="UTF-8" standalone="no"?>
<!-- Created with Inkscape (http://www.inkscape.org/) -->

<svg
   xmlns:dc="http://purl.org/dc/elements/1.1/"
   xmlns:cc="http://creativecommons.org/ns#"
   xmlns:rdf="http://www.w3.org/1999/02/22-rdf-syntax-ns#"
   xmlns:svg="http://www.w3.org/2000/svg"
   xmlns="http://www.w3.org/2000/svg"
   xmlns:sodipodi="http://sodipodi.sourceforge.net/DTD/sodipodi-0.dtd"
   xmlns:inkscape="http://www.inkscape.org/namespaces/inkscape"
   width="112.79383mm"
   height="112.7927mm"
   viewBox="0 0 112.79383 112.7927"
   version="1.1"
   id="svg8"
   inkscape:version="0.92.5 (2060ec1f9f, 2020-04-08)"
   sodipodi:docname="logo.svg">
  <defs
     id="defs2" />
  <sodipodi:namedview
     id="base"
     pagecolor="#ffffff"
     bordercolor="#666666"
     borderopacity="1.0"
     inkscape:pageopacity="0.0"
     inkscape:pageshadow="2"
     inkscape:zoom="0.90509668"
     inkscape:cx="-116.181"
     inkscape:cy="225.9284"
     inkscape:document-units="mm"
     inkscape:current-layer="layer1"
     showgrid="false"
     inkscape:window-width="1920"
     inkscape:window-height="1004"
     inkscape:window-x="0"
     inkscape:window-y="0"
     inkscape:window-maximized="1" />
  <metadata
     id="metadata5">
    <rdf:RDF>
      <cc:Work
         rdf:about="">
        <dc:format>image/svg+xml</dc:format>
        <dc:type
           rdf:resource="http://purl.org/dc/dcmitype/StillImage" />
        <dc:title />
      </cc:Work>
    </rdf:RDF>
  </metadata>
  <g
     inkscape:label="Capa 1"
     inkscape:groupmode="layer"
     id="layer1"
     transform="translate(-93.392711,3446.3032)">
    <path
       inkscape:connector-curvature="0"
       style="fill:#ffffff;stroke-width:0.2149"
       d="m 153.02337,-3376.1848 c 0.34276,0.3411 0.26067,0.9783 -0.17987,1.4174 -0.44184,0.4422 -1.07557,0.5236 -1.41834,0.1808 -0.34062,-0.3395 -0.26196,-0.9758 0.17987,-1.4187 0.44183,-0.4408 1.07837,-0.5233 1.41834,-0.1795 z"
       id="path1179" />
    <path
       inkscape:connector-curvature="0"
       style="fill:#ffffff;fill-opacity:0.94117647;stroke-width:0.2149"
       d="m 148.88182,-3419.295 c 0.12443,0.1238 0.0924,0.3576 -0.0666,0.5188 -0.16397,0.1612 -0.39498,0.1904 -0.51941,0.067 -0.1255,-0.1256 -0.0974,-0.3576 0.0666,-0.5206 0.15967,-0.1618 0.39392,-0.1904 0.51942,-0.065 z"
       id="path1163" />
    <path
       inkscape:connector-curvature="0"
       style="fill:#ffffff;fill-opacity:1;stroke-width:0.2149"
       d="m 148.36584,-3428.9793 c 0.19084,0.1904 0.14356,0.5462 -0.10294,0.7921 -0.24649,0.2458 -0.60301,0.2927 -0.79276,0.1012 -0.19084,-0.1904 -0.14248,-0.5445 0.10294,-0.7938 0.24649,-0.2459 0.60236,-0.291 0.79276,-0.099 z"
       id="path1155" />
    <path
       inkscape:connector-curvature="0"
       style="fill:#ffffff;fill-opacity:0.94117647;stroke-width:0.2149"
       d="m 153.51613,-3424.4759 c 0.27293,0.2762 0.21061,0.7878 -0.14698,1.1454 -0.35824,0.3548 -0.87143,0.4215 -1.14585,0.1464 -0.27508,-0.2779 -0.21017,-0.7896 0.14462,-1.1454 0.35932,-0.3576 0.871,-0.4225 1.14821,-0.1464 z"
       id="path1159" />
    <g
       id="g1185"
       transform="matrix(0.26458333,0,0,0.26458333,-205.61985,-3340.0483)" />
    <g
       id="g1187"
       transform="matrix(0.26458333,0,0,0.26458333,-205.61985,-3340.0483)" />
    <g
       id="g1189"
       transform="matrix(0.26458333,0,0,0.26458333,-205.61985,-3340.0483)" />
    <g
       id="g1191"
       transform="matrix(0.26458333,0,0,0.26458333,-205.61985,-3340.0483)" />
    <g
       id="g1193"
       transform="matrix(0.26458333,0,0,0.26458333,-205.61985,-3340.0483)" />
    <g
       id="g1195"
       transform="matrix(0.26458333,0,0,0.26458333,-205.61985,-3340.0483)" />
    <g
       id="g1197"
       transform="matrix(0.26458333,0,0,0.26458333,-205.61985,-3340.0483)" />
    <g
       id="g1199"
       transform="matrix(0.26458333,0,0,0.26458333,-205.61985,-3340.0483)" />
    <g
       id="g1201"
       transform="matrix(0.26458333,0,0,0.26458333,-205.61985,-3340.0483)" />
    <g
       id="g1203"
       transform="matrix(0.26458333,0,0,0.26458333,-205.61985,-3340.0483)" />
    <g
       id="g1205"
       transform="matrix(0.26458333,0,0,0.26458333,-205.61985,-3340.0483)" />
    <g
       id="g1207"
       transform="matrix(0.26458333,0,0,0.26458333,-205.61985,-3340.0483)" />
    <g
       id="g1209"
       transform="matrix(0.26458333,0,0,0.26458333,-205.61985,-3340.0483)" />
    <g
       id="g1211"
       transform="matrix(0.26458333,0,0,0.26458333,-205.61985,-3340.0483)" />
    <g
       id="g1213"
       transform="matrix(0.26458333,0,0,0.26458333,-205.61985,-3340.0483)" />
    <path
       id="path887"
       d="m 132.39347,-3389.0412 c -0.22981,3.993 2.84394,7.4115 6.83693,7.6412 0.14364,0 0.28727,0 0.4309,0 4.02173,0 7.26783,-3.246 7.2391,-7.2677 0,-4.0218 -3.2461,-7.2679 -7.26782,-7.2391 -3.84937,0 -7.03802,3.0162 -7.23911,6.8656 z"
       class="st0"
       inkscape:connector-curvature="0"
       style="fill:#034078;fill-opacity:1;stroke-width:0.28726593" />
    <path
       id="path901"
       d="m 122.6537,-3391.7607 c 1.98213,1.2926 4.62498,0.7468 5.88895,-1.2353 1.29269,-1.9821 0.74689,-4.625 -1.23525,-5.889 -1.98213,-1.2926 -4.62498,-0.7468 -5.88895,1.2353 -1.29269,1.9534 -0.74689,4.5963 1.23525,5.889 0,0 0,0 0,0 z"
       class="st0"
       inkscape:connector-curvature="0"
       style="fill:#034078;fill-opacity:1;stroke-width:0.28726593" />
    <path
       id="path907"
       d="m 159.9318,-3395.4351 c -3.99299,-0.2298 -7.44018,2.8439 -7.64127,6.837 -0.22981,3.993 2.84393,7.4402 6.83693,7.6412 0.14363,0 0.28726,0 0.40217,0 3.993,0 7.2391,-3.2461 7.2391,-7.2678 0.0287,-3.8206 -2.98756,-7.0093 -6.83693,-7.2104 z"
       class="st0"
       inkscape:connector-curvature="0"
       style="fill:#034078;fill-opacity:1;stroke-width:0.28726593" />
    <path
       id="path913"
       d="m 172.72869,-3398.7291 c -2.09704,1.0628 -2.95884,3.6194 -1.89595,5.7165 1.06288,2.097 3.61955,2.9589 5.71659,1.8959 2.09704,-1.0628 2.95884,-3.6195 1.89595,-5.7165 -1.06288,-2.097 -3.61955,-2.9301 -5.71659,-1.8959 z"
       class="st0"
       inkscape:connector-curvature="0"
       style="fill:#034078;fill-opacity:1;stroke-width:0.28726593" />
    <path
       id="path919"
       d="m 124.84601,-3361.1714 c 2.09704,-1.0629 2.95883,-3.6196 1.89595,-5.7167 -1.06288,-2.0969 -3.61955,-2.9588 -5.71659,-1.8959 -2.09704,1.063 -2.95884,3.6195 -1.89596,5.7166 1.06289,2.0971 3.61955,2.9589 5.7166,1.896 z"
       class="st0"
       inkscape:connector-curvature="0"
       style="fill:#034078;fill-opacity:1;stroke-width:0.28726593" />
    <path
       id="path923"
       d="m 156.4317,-3370.2687 c -1.80977,-3.5909 -6.17621,-5.0272 -9.73831,-3.2175 -3.59083,1.8098 -5.02716,6.1763 -3.21738,9.7383 1.80978,3.5909 6.17622,5.0272 9.73831,3.2175 0,0 0,0 0,0 3.5621,-1.7811 5.02716,-6.0901 3.24611,-9.6809 0,-0.028 0,-0.028 -0.0287,-0.058 z"
       class="st0"
       inkscape:connector-curvature="0"
       style="fill:#034078;fill-opacity:1;stroke-width:0.28726593" />
    <path
       id="path925"
       d="m 179.68353,-3368.1399 c -1.98213,-1.2927 -4.62498,-0.7469 -5.88895,1.2353 -1.2927,1.9822 -0.74689,4.6249 1.23524,5.8889 1.98214,1.2927 4.62498,0.7469 5.88895,-1.2352 1.2927,-1.9534 0.7469,-4.5962 -1.23524,-5.889 0,0 0,0 0,0 z"
       class="st0"
       inkscape:connector-curvature="0"
       style="fill:#034078;fill-opacity:1;stroke-width:0.28726593" />
    <path
       id="path943"
       d="m 150.37486,-3355.7089 c -2.35558,-0.1436 -4.36644,1.6662 -4.48135,4.0218 -0.14363,2.3555 1.66614,4.3664 4.02172,4.4813 2.35558,0.1149 4.36645,-1.6661 4.48135,-4.0217 0.14363,-2.3268 -1.66614,-4.3665 -4.02172,-4.4814 0,0 0,0 0,0 z"
       class="st0"
       inkscape:connector-curvature="0"
       style="fill:#034078;fill-opacity:1;stroke-width:0.28726593" />
    <path
       inkscape:connector-curvature="0"
       style="fill:#e1effa;stroke-width:0.2149;fill-opacity:1"
       d="m 159.61564,-3413.7568 c 0,0.9341 -0.76203,1.6967 -1.69448,1.6967 h -15.50032 c -0.93416,0 -1.69555,-0.7626 -1.69555,-1.6967 v 0 c 0,-0.931 0.76139,-1.6949 1.69555,-1.6949 h 15.50032 c 0.93245,5e-4 1.69448,0.7642 1.69448,1.6949 z"
       id="path1145" />
    <path
       inkscape:connector-curvature="0"
       style="fill:#e1effa;stroke-width:0.2149"
       d="m 132.24211,-3363.413 c -1.25588,0 -2.47393,-0.6525 -3.14678,-1.8155 -0.67393,-1.1652 -0.62557,-2.5465 0,-3.6342 l 21.07546,-36.5038 21.07545,36.5032 c 0.62493,1.0883 0.67328,2.469 0,3.6342 -0.67392,1.163 -1.89198,1.8154 -3.14742,1.8154 h -35.85671 z"
       id="path1147" />
    <path
       inkscape:connector-curvature="0"
       style="fill:#034078;fill-opacity:1;stroke-width:0.2149"
       d="m 169.77633,-3368.0151 -7.40116,-12.8233 h -5.38818 c -0.34771,-0.4874 -0.91655,-0.8086 -1.56232,-0.8086 -0.6432,0 -1.21204,0.3212 -1.55911,0.8086 h -3.36254 c -0.67564,-1.0837 -1.86984,-1.806 -3.23876,-1.806 -1.3659,0 -2.56419,0.7223 -3.23983,1.806 h -6.0576 l -7.40159,12.8233 c -0.34556,0.5974 -0.34556,1.3401 0,1.9375 0.34277,0.5957 0.98467,0.9688 1.67687,0.9688 h 35.85671 c 0.69198,0 1.33474,-0.3731 1.6773,-0.9688 0.34555,-0.5974 0.34555,-1.3401 2.1e-4,-1.9375 z"
       id="path1149" />
    <rect
       x="142.29813"
       y="-3412.0615"
       style="fill:#e1effa;stroke-width:0.2149;fill-opacity:1"
       width="15.741211"
       height="20.325027"
       id="rect1151" />
    <circle
       style="fill:#034078;fill-opacity:1;stroke-width:0.2149"
       cx="149.24208"
       cy="-3427.738"
       r="1.9491431"
       id="circle1153" />
    <path
       inkscape:connector-curvature="0"
       style="fill:#034078;fill-opacity:1;stroke-width:0.13338768"
       d="m 153.72232,-3422.7871 c 0,0.9254 -0.75059,1.675 -1.67389,1.675 -0.92465,0 -1.67495,-0.7496 -1.67495,-1.675 0,-0.9235 0.75018,-1.6731 1.67495,-1.6731 0.92305,0 1.67389,0.7496 1.67389,1.6731 z"
       id="path1157" />
    <path
       inkscape:connector-curvature="0"
       style="fill:#034078;fill-opacity:1;stroke-width:0.2149"
       d="m 150.30059,-3418.5138 c 0,0.6761 -0.5495,1.2241 -1.22236,1.2241 -0.67607,0 -1.22342,-0.548 -1.22342,-1.2241 0,-0.675 0.54735,-1.2224 1.22342,-1.2224 0.67286,-2e-4 1.22236,0.5479 1.22236,1.2224 z"
       id="path1161" />
    <path
       inkscape:connector-curvature="0"
       style="fill:#e1effa;stroke-width:0.2149"
       d="m 156.12997,-3379.7343 c 0,0.3894 -0.31569,0.7047 -0.7053,0.7047 -0.3879,0 -0.7008,-0.3153 -0.7008,-0.7047 0,-0.3879 0.31311,-0.7003 0.7008,-0.7003 0.38939,-4e-4 0.7053,0.3124 0.7053,0.7003 z"
       id="path1165" />
    <path
       inkscape:connector-curvature="0"
       style="fill:#e1effa;stroke-width:0.2149"
       d="m 148.86914,-3378.8304 c 0,0.8859 -0.71905,1.6043 -1.60488,1.6043 -0.88732,0 -1.60594,-0.7184 -1.60594,-1.6043 0,-0.8873 0.7184,-1.6046 1.60594,-1.6046 0.88583,0 1.60488,0.7173 1.60488,1.6046 z"
       id="path1169" />
    <path
       inkscape:connector-curvature="0"
       style="fill:#e1effa;stroke-width:0.2149"
       d="m 144.92078,-3371.3912 c 0,1.2044 -0.97543,2.1812 -2.17737,2.1812 -1.20602,0 -2.18188,-0.9764 -2.18188,-2.1812 0,-1.2036 0.97543,-2.1808 2.18188,-2.1808 1.20194,0 2.17737,0.9765 2.17737,2.1808 z"
       id="path1173" />
    <path
       inkscape:connector-curvature="0"
       style="fill:#e1effa;stroke-width:0.2149"
       d="m 156.90511,-3374.049 c 0,1.8457 -1.49807,3.3449 -3.34385,3.3449 -1.84727,0 -3.3432,-1.4992 -3.3432,-3.3449 0,-1.8452 1.49528,-3.34 3.3432,-3.34 1.84642,-5e-4 3.34385,1.4942 3.34385,3.34 z"
       id="path1177" />
    <circle
       style="fill:#e1effa;stroke-width:0.2149"
       cx="159.25375"
       cy="-3368.4897"
       r="0.96833944"
       id="circle1181" />
  </g>
  <style
     id="style885"
     type="text/css">
	.st0{fill:#0033AD;}
</style>
</svg>
